<svg width="14" height="27" viewBox="0 0 14 27" fill="none" xmlns="http://www.w3.org/2000/svg">
<g clip-path="url(#clip0_701_216)">
<path d="M7.3634 0.5C9.15831 0.5 10.6134 1.95509 10.6134 3.75C10.6134 5.54491 9.15831 7 7.3634 7C5.56848 7 4.1134 5.54491 4.1134 3.75C4.1134 1.95509 5.56848 0.5 7.3634 0.5ZM13.4207 18.4857L10.9832 8.73565C10.9173 8.47197 10.7651 8.2379 10.5509 8.07063C10.3367 7.90336 10.0727 7.8125 9.8009 7.8125H9.22402C8.07073 8.34281 6.70578 8.36571 5.50277 7.8125H4.9259C4.6541 7.8125 4.39011 7.90336 4.17588 8.07063C3.96165 8.2379 3.80948 8.47197 3.74356 8.73565L1.30606 18.4857C1.114 19.2538 1.69535 20 2.4884 20H5.33215V25.2812C5.33215 25.9544 5.87779 26.5 6.5509 26.5H8.1759C8.849 26.5 9.39465 25.9544 9.39465 25.2812V20H12.2384C13.0301 20 13.6131 19.255 13.4207 18.4857Z" fill="#5832E6"/>
</g>
<defs>
<clipPath id="clip0_701_216">
<rect width="13" height="26" fill="white" transform="translate(0.863251 0.5)"/>
</clipPath>
</defs>
</svg>
